<?xml version="1.0" encoding="utf-8"?>
<svg width="500" zoomAndPan="magnify" viewBox="0 0 375 149.999998" height="200" preserveAspectRatio="none" version="1.0" xmlns="http://www.w3.org/2000/svg" xmlns:bx="https://boxy-svg.com"><defs><g/><bx:export><bx:file format="svg"/></bx:export></defs><g fill="#ffffff" fill-opacity="1"><g transform="translate(1.33626, 109.882943)"><g><path d="M 55.9375 -87.6875 C 63.84375 -87.6875 70.179688 -85.820312 74.953125 -82.09375 C 79.722656 -78.375 82.109375 -73.03125 82.109375 -66.0625 C 82.109375 -58.613281 79.894531 -52.039062 75.46875 -46.34375 C 71.050781 -40.644531 65.394531 -37.175781 58.5 -35.9375 L 80.359375 0 L 51.984375 0 L 35.8125 -33.71875 L 35.59375 -33.71875 L 30.234375 0 L 7.4375 0 L 21.28125 -87.6875 Z M 37.90625 -48.375 L 41.046875 -48.375 C 46.398438 -48.375 50.550781 -49.5 53.5 -51.75 C 56.445312 -54 57.921875 -57.296875 57.921875 -61.640625 C 57.921875 -67.378906 53.191406 -70.25 43.734375 -70.25 L 41.40625 -70.25 Z M 37.90625 -48.375 "/></g></g></g><g fill="#ffffff" fill-opacity="1"><g transform="translate(68.082943, 109.882943)"><g><path d="M 71.171875 -87.6875 L 68.15625 -68.375 L 41.046875 -68.375 L 38.734375 -53.734375 L 64.421875 -53.734375 L 61.40625 -34.421875 L 35.703125 -34.421875 L 33.265625 -19.3125 L 60.359375 -19.3125 L 57.328125 0 L 7.4375 0 L 21.28125 -87.6875 Z M 71.171875 -87.6875 "/></g></g></g><g fill="#ffffff" fill-opacity="1"><g transform="translate(119.712497, 109.882943)"><g><path d="M 36.859375 -87.6875 L 49.65625 -34.421875 L 79.3125 -87.6875 L 104.078125 -87.6875 L 52.796875 0 L 35.125 0 L 12.09375 -87.6875 Z M 36.859375 -87.6875 "/></g></g></g><g fill="#ffd700" fill-opacity="1"><g transform="translate(183.872732, 109.882943)"><g><path d="M 44.078125 -87.6875 L 30.234375 0 L 7.4375 0 L 21.28125 -87.6875 Z M 44.078125 -87.6875 "/></g></g></g><g fill="#ffd700" fill-opacity="1"><g transform="translate(220.857595, 109.882943)"><g><path d="M 36.859375 -87.6875 L 49.65625 -34.421875 L 79.3125 -87.6875 L 104.078125 -87.6875 L 52.796875 0 L 35.125 0 L 12.09375 -87.6875 Z M 36.859375 -87.6875 "/></g></g></g><g fill="#ffd700" fill-opacity="1"><g transform="translate(297.023431, 109.882943)"><g><path d="M 71.171875 -87.6875 L 68.15625 -68.375 L 41.046875 -68.375 L 38.734375 -53.734375 L 64.421875 -53.734375 L 61.40625 -34.421875 L 35.703125 -34.421875 L 33.265625 -19.3125 L 60.359375 -19.3125 L 57.328125 0 L 7.4375 0 L 21.28125 -87.6875 Z M 71.171875 -87.6875 "/></g></g></g></svg>