<svg xmlns="http://www.w3.org/2000/svg" xmlns:xlink="http://www.w3.org/1999/xlink" width="500" zoomAndPan="magnify" viewBox="0 0 375 149.999998" height="200" preserveAspectRatio="xMidYMid meet" version="1.0"><defs><g/></defs><g fill="#ffffff" fill-opacity="1"><g transform="translate(28.714592, 104.998116)"><g><path d="M 48.09375 -75.40625 C 54.894531 -75.40625 60.34375 -73.800781 64.4375 -70.59375 C 68.539062 -67.394531 70.59375 -62.796875 70.59375 -56.796875 C 70.59375 -50.398438 68.691406 -44.75 64.890625 -39.84375 C 61.097656 -34.945312 56.234375 -31.96875 50.296875 -30.90625 L 69.09375 0 L 44.703125 0 L 30.796875 -29 L 30.59375 -29 L 26 0 L 6.40625 0 L 18.296875 -75.40625 Z M 32.59375 -41.59375 L 35.296875 -41.59375 C 39.898438 -41.59375 43.46875 -42.5625 46 -44.5 C 48.53125 -46.4375 49.796875 -49.269531 49.796875 -53 C 49.796875 -57.9375 45.726562 -60.40625 37.59375 -60.40625 L 35.59375 -60.40625 Z M 32.59375 -41.59375 "/></g></g></g><g fill="#ffffff" fill-opacity="1"><g transform="translate(86.107146, 104.998116)"><g><path d="M 61.203125 -75.40625 L 58.59375 -58.796875 L 35.296875 -58.796875 L 33.296875 -46.203125 L 55.40625 -46.203125 L 52.796875 -29.59375 L 30.703125 -29.59375 L 28.59375 -16.59375 L 51.90625 -16.59375 L 49.296875 0 L 6.40625 0 L 18.296875 -75.40625 Z M 61.203125 -75.40625 "/></g></g></g><g fill="#ffffff" fill-opacity="1"><g transform="translate(130.501143, 104.998116)"><g><path d="M 31.703125 -75.40625 L 42.703125 -29.59375 L 68.203125 -75.40625 L 89.5 -75.40625 L 45.40625 0 L 30.203125 0 L 10.40625 -75.40625 Z M 31.703125 -75.40625 "/></g></g></g><path stroke-linecap="butt" transform="matrix(1.874977, 0, 0, 1.874977, 184.872619, 5.624316)" fill="none" stroke-linejoin="miter" d="M 20.207764 12.794269 L 13.866021 53.001005 L 3.411728 53.001005 L 9.765971 12.794269 Z M 28.524531 12.794269 L 34.397519 37.219564 L 47.98935 12.794269 L 59.356154 12.794269 L 35.841286 53.001005 L 27.730772 53.001005 L 17.172311 12.794269 Z M 79.195976 12.794269 L 77.80221 21.648543 L 65.381226 21.648543 L 64.314547 28.365291 L 76.095939 28.365291 L 74.716756 37.219564 L 62.92078 37.219564 L 61.799933 44.146731 L 74.2355 44.146731 L 72.841733 53.001005 L 49.966457 53.001005 L 56.318617 12.794269 Z M 79.195976 12.794269 " stroke="#252525" stroke-width="5.399997" stroke-opacity="1" stroke-miterlimit="4"/><g fill="#ffd700" fill-opacity="1"><g transform="translate(184.872619, 104.998116)"><g><path d="M 37.90625 -75.40625 L 26 0 L 6.40625 0 L 18.296875 -75.40625 Z M 37.90625 -75.40625 "/></g></g></g><g fill="#ffd700" fill-opacity="1"><g transform="translate(206.669155, 104.998116)"><g><path d="M 31.703125 -75.40625 L 42.703125 -29.59375 L 68.203125 -75.40625 L 89.5 -75.40625 L 45.40625 0 L 30.203125 0 L 10.40625 -75.40625 Z M 31.703125 -75.40625 "/></g></g></g><g fill="#ffd700" fill-opacity="1"><g transform="translate(272.160828, 104.998116)"><g><path d="M 61.203125 -75.40625 L 58.59375 -58.796875 L 35.296875 -58.796875 L 33.296875 -46.203125 L 55.40625 -46.203125 L 52.796875 -29.59375 L 30.703125 -29.59375 L 28.59375 -16.59375 L 51.90625 -16.59375 L 49.296875 0 L 6.40625 0 L 18.296875 -75.40625 Z M 61.203125 -75.40625 "/></g></g></g></svg>